<?xml version="1.0" encoding="iso-8859-1"?>
<!-- Generator: Adobe Illustrator 19.0.0, SVG Export Plug-In . SVG Version: 6.00 Build 0)  -->
<svg version="1.1" id="Capa_1" xmlns="http://www.w3.org/2000/svg" xmlns:xlink="http://www.w3.org/1999/xlink" x="0px" y="0px"
	 viewBox="0 0 512 512" style="enable-background:new 0 0 512 512;" xml:space="preserve">
<rect x="241.029" y="246.519" style="fill:#FF8700;" width="29.942" height="59.883"/>
<rect x="256" y="246.519" style="fill:#E47500;" width="14.971" height="59.883"/>
<path style="fill:#FDB455;" d="M325.861,376.265H186.133v-14.971c0-38.523,31.341-69.864,69.864-69.864s69.864,31.341,69.864,69.864
	V376.265z"/>
<path style="fill:#FF9800;" d="M255.997,291.431v84.834h69.864v-14.971C325.861,322.772,294.52,291.431,255.997,291.431z"/>
<path style="fill:#E47500;" d="M355.309,209.591v-29.942c39.348,0,71.361-32.009,71.361-71.354V29.942h-71.361V0h101.302v108.295
	C456.611,164.149,411.167,209.591,355.309,209.591z"/>
<path style="fill:#FF8700;" d="M156.691,209.591c-55.858,0-101.302-45.441-101.302-101.295V0h101.302v29.942H85.33v78.354
	c0,39.344,32.012,71.354,71.361,71.354V209.591z"/>
<path style="fill:#FDB455;" d="M255.997,261.489c-69.342,0-125.754-56.413-125.754-125.754V0.998h251.509v134.737
	C381.751,205.076,325.339,261.489,255.997,261.489z"/>
<path style="fill:#FF9800;" d="M255.997,0.998v260.491c69.342,0,125.754-56.413,125.754-125.754V0.998H255.997z"/>
<path style="fill:#A6673A;" d="M375.763,456.109H138.227V346.324h237.536V456.109z"/>
<polygon style="fill:#FF8700;" points="255.997,62.913 267.777,99.17 305.9,99.17 275.058,121.578 286.839,157.834 255.997,135.426 
	225.155,157.834 236.936,121.578 206.094,99.17 244.217,99.17 "/>
<polygon style="fill:#E47500;" points="305.9,99.17 267.777,99.17 255.997,62.913 255.997,135.426 286.839,157.834 275.058,121.578 
	"/>
<path style="fill:#99522E;" d="M375.763,456.109H255.997V346.324h119.766V456.109z"/>
<path style="fill:#57555C;" d="M425.666,512H88.325v-85.832h337.341V512z"/>
<path style="fill:#3C3B41;" d="M425.666,512H255.997v-85.832h169.669V512z"/>
<g>
</g>
<g>
</g>
<g>
</g>
<g>
</g>
<g>
</g>
<g>
</g>
<g>
</g>
<g>
</g>
<g>
</g>
<g>
</g>
<g>
</g>
<g>
</g>
<g>
</g>
<g>
</g>
<g>
</g>
</svg>
