<?xml version="1.0" encoding="iso-8859-1"?>
<!-- Generator: Adobe Illustrator 19.0.0, SVG Export Plug-In . SVG Version: 6.00 Build 0)  -->
<svg version="1.1" id="Layer_1" xmlns="http://www.w3.org/2000/svg" xmlns:xlink="http://www.w3.org/1999/xlink" x="0px" y="0px"
	 viewBox="0 0 512 512" style="enable-background:new 0 0 512 512;" xml:space="preserve">
<path style="fill:#FFDE33;" d="M492.531,512h-67.58c-9.333,0-16.895-7.562-16.895-16.895V213.52
	c0-27.949,22.736-50.685,50.685-50.685s50.685,22.736,50.685,50.685v281.585C509.426,504.437,501.864,512,492.531,512z"/>
<path style="fill:#FFBC33;" d="M492.531,512c9.333,0,16.895-7.562,16.895-16.895V213.52c0-27.949-22.736-50.685-50.685-50.685V512
	H492.531z"/>
<path style="fill:#50B9FF;" d="M357.37,500.736h-67.58c-9.333,0-16.895-7.562-16.895-16.895V281.1
	c0-27.949,22.736-50.685,50.685-50.685s50.685,22.736,50.685,50.685v202.741C374.265,493.174,366.703,500.736,357.37,500.736z"/>
<path style="fill:#48A7E6;" d="M357.37,500.736c9.333,0,16.895-7.562,16.895-16.895V281.1c0-27.949-22.736-50.685-50.685-50.685
	v270.321H357.37z"/>
<path style="fill:#7BCC29;" d="M222.21,500.736h-67.58c-9.333,0-16.895-7.562-16.895-16.895V348.68
	c0-27.949,22.736-50.685,50.685-50.685s50.685,22.736,50.685,50.685v135.161C239.105,493.174,231.542,500.736,222.21,500.736z"/>
<path style="fill:#6EB825;" d="M222.21,500.736c9.333,0,16.895-7.562,16.895-16.895V348.68c0-27.949-22.736-50.685-50.685-50.685
	v202.741H222.21z"/>
<path style="fill:#EC7838;" d="M87.049,512h-67.58c-9.333,0-16.895-7.562-16.895-16.895v-78.844
	c0-27.949,22.736-50.685,50.685-50.685s50.685,22.736,50.685,50.685v78.844C103.944,504.437,96.382,512,87.049,512z"/>
<path style="fill:#DB632C;" d="M87.049,512c9.333,0,16.895-7.562,16.895-16.895v-78.844c0-27.949-22.736-50.685-50.685-50.685V512
	H87.049z"/>
<path style="fill:#50B9FF;" d="M489.151,45.019l-22.752,67.918c-2.928,8.785-12.389,13.629-21.287,10.7
	c-8.898-2.927-13.629-12.502-10.7-21.4l9.911-29.623L60.016,264.768c-8.335,4.167-18.472,0.788-22.638-7.546
	c-4.169-8.335-0.79-18.472,7.545-22.639l211.076-105.651l172.782-86.39l-28.948-9.687c-8.898-2.927-13.629-12.502-10.7-21.4
	c3.041-8.785,12.501-13.516,21.399-10.588l68.031,22.752C487.35,26.546,492.193,36.121,489.151,45.019z"/>
<path style="fill:#48A7E6;" d="M489.151,45.019l-22.752,67.918c-2.928,8.785-12.389,13.629-21.287,10.7
	c-8.898-2.927-13.629-12.502-10.7-21.4l9.911-29.623l-188.324,94.162v-37.845l172.782-86.39l-28.948-9.687
	c-8.898-2.927-13.629-12.502-10.7-21.4c3.041-8.785,12.501-13.516,21.399-10.588l68.031,22.752
	C487.35,26.546,492.193,36.121,489.151,45.019z"/>
<path style="fill:#5C5F66;" d="M492.525,512H19.469c-9.333,0-16.895-7.562-16.895-16.895s7.562-16.895,16.895-16.895h473.057
	c9.327,0,16.895,7.562,16.895,16.895S501.853,512,492.525,512z"/>
<path style="fill:#53565C;" d="M492.525,478.209H256V512h236.526c9.327,0,16.895-7.562,16.895-16.895
	S501.853,478.209,492.525,478.209z"/>
<g>
</g>
<g>
</g>
<g>
</g>
<g>
</g>
<g>
</g>
<g>
</g>
<g>
</g>
<g>
</g>
<g>
</g>
<g>
</g>
<g>
</g>
<g>
</g>
<g>
</g>
<g>
</g>
<g>
</g>
</svg>
